<svg id="Layer_1" data-name="Layer 1" xmlns="http://www.w3.org/2000/svg" viewBox="0 0 92.18 92.18"><defs><style>.cls-1{fill:#fcd902;}</style></defs><title>HDFW_Mono_Box_Color</title><path class="cls-1" d="M87.18,76.27a.7.7,0,0,1,.68-.68h3.32a.68.68,0,0,1,.68.68v9.45h11.63V76.27a.68.68,0,0,1,.68-.68h3.28a.7.7,0,0,1,.68.68V99.89a.7.7,0,0,1-.68.68h-3.28a.68.68,0,0,1-.68-.68V90H91.86v9.85a.68.68,0,0,1-.68.68H87.86a.7.7,0,0,1-.68-.68Z" transform="translate(-71.08 -60.8)"/><path class="cls-1" d="M126,76.27a.67.67,0,0,1,.64-.68h8.46a12.49,12.49,0,1,1,0,25h-8.46a.67.67,0,0,1-.64-.68Zm8.67,19.94a8.15,8.15,0,0,0,0-16.3h-4.07v16.3Z" transform="translate(-71.08 -60.8)"/><path class="cls-1" d="M89.45,113.93a.68.68,0,0,1,.68-.68h14.52a.68.68,0,0,1,.68.68v2.93a.68.68,0,0,1-.68.68H94.09v6.71h8.81a.7.7,0,0,1,.68.68v2.93a.7.7,0,0,1-.68.68H94.09v9a.7.7,0,0,1-.68.68H90.13a.68.68,0,0,1-.68-.68Z" transform="translate(-71.08 -60.8)"/><path class="cls-1" d="M119.33,114.11a.62.62,0,0,1,.64-.86h3.28a.73.73,0,0,1,.64.5L127.61,128h.14l5.67-14.7a.58.58,0,0,1,.61-.39h.64a.58.58,0,0,1,.61.39L141,128h.14l3.64-14.23a.73.73,0,0,1,.64-.5h3.28a.62.62,0,0,1,.64.86l-6.74,24a.69.69,0,0,1-.64.5h-.57a.61.61,0,0,1-.61-.39L134.39,122h-.18l-6.31,16.16a.61.61,0,0,1-.61.39h-.57a.69.69,0,0,1-.64-.5Z" transform="translate(-71.08 -60.8)"/><path class="cls-1" d="M163.26,153H71.08V60.8h92.18Zm-88-4.18h83.82V65H75.26Z" transform="translate(-71.08 -60.8)"/></svg>